<svg id="Layer_1" data-name="Layer 1" xmlns="http://www.w3.org/2000/svg" viewBox="0 0 400 400"><defs><style>.cls-1{fill:#8ab7e9;}</style></defs><path class="cls-1" d="M324,124.2v6.89H76V124.2a20.67,20.67,0,0,1,20.67-20.67H303.36A20.67,20.67,0,0,1,324,124.2ZM76,144.87H324V275.8a20.67,20.67,0,0,1-20.67,20.67H96.64A20.67,20.67,0,0,1,76,275.8Zm35.61,124H192c4.48,0,8.09-4.26,6.72-8.53a27.61,27.61,0,0,0-26.23-19H168.9a44.3,44.3,0,0,1-34.28,0h-3.53a27.61,27.61,0,0,0-26.23,19C103.49,264.6,107.1,268.91,111.58,268.91ZM124.2,200a27.57,27.57,0,1,0,27.56-27.56A27.59,27.59,0,0,0,124.2,200Zm103.36-17.23a3.46,3.46,0,0,0,3.45,3.45h62a3.45,3.45,0,0,0,3.44-3.45v-6.89a3.45,3.45,0,0,0-3.44-3.44H231a3.45,3.45,0,0,0-3.45,3.44Zm0,27.57a3.45,3.45,0,0,0,3.45,3.44h62a3.45,3.45,0,0,0,3.44-3.44v-6.89A3.45,3.45,0,0,0,293,200H231a3.46,3.46,0,0,0-3.45,3.45Zm0,27.56a3.45,3.45,0,0,0,3.45,3.44h62a3.45,3.45,0,0,0,3.44-3.44V231a3.45,3.45,0,0,0-3.44-3.45H231a3.46,3.46,0,0,0-3.45,3.45Z"/></svg>