<svg id="Layer_1" data-name="Layer 1" xmlns="http://www.w3.org/2000/svg" viewBox="0 0 400 400"><defs><style>.cls-1{fill:#8ab7e9;}</style></defs><path class="cls-1" d="M356.82,260.33a19.73,19.73,0,0,1-6.54,13.6l-82.34,65.88c-5.27,4.21-15,7.62-21.75,7.62H51.91a8.72,8.72,0,0,1-8.73-8.71V286.45a8.73,8.73,0,0,1,8.73-8.71H82.06l25.32-20.54c5.57-4.51,13.85-8.52,22.26-11.15l.47-.14c.84-.25,1.67-.51,2.49-.73l.83-.21c.71-.19,1.42-.36,2.13-.53l1-.21,1.94-.39,1-.18c.64-.11,1.25-.2,1.86-.28.34,0,.68-.11,1-.13.65-.1,1.27-.15,1.88-.2l.86-.06c.9-.06,1.76-.1,2.61-.1h87.11a18,18,0,0,1,2.87.25h0a.67.67,0,0,1,.19.05c.42.07.82.17,1.22.27l.23,0h0a17.39,17.39,0,0,1,12.56,13.2v0a15.59,15.59,0,0,1,.24,1.57.67.67,0,0,1,0,.18,16.32,16.32,0,0,1,.09,1.71s0,.06,0,.09v.07c0,.4,0,.92-.07,1.45,0,.27-.06.52-.08.78s-.06.48-.1.68a16.71,16.71,0,0,1-7.59,11.34,19.85,19.85,0,0,1-2.76,1.5,19.47,19.47,0,0,1-4.55,1.37c-.52.08-1.05.16-1.6.2s-1.06.07-1.6.07H191.29a8.71,8.71,0,0,0-3.4,16.74,9,9,0,0,0,3.4.69h64.49c.43,0,.86,0,1.29-.05a38,38,0,0,0,10.12-2.19c1.23-.44,2.46-.94,3.64-1.48a31.09,31.09,0,0,0,6.63-3.9l50.32-40.25,0,0c.41-.32.84-.64,1.28-.92a3.87,3.87,0,0,1,.43-.27l.94-.59c.18-.1.37-.18.54-.27a6.51,6.51,0,0,1,.92-.44,3.83,3.83,0,0,1,.59-.24c.29-.13.58-.26.88-.36s.43-.14.66-.21.57-.19.87-.26.46-.09.68-.15l.85-.19c.26,0,.5-.05.74-.1l.84-.11.73,0c.27,0,.55,0,.84,0h.1l.72,0A16.56,16.56,0,0,1,351,247.3a19.85,19.85,0,0,1,5.85,13m-119.11-26a25.77,25.77,0,0,1,11.8,4.37,9.56,9.56,0,0,0,2.49-6.45c.06-5.9-5.42-10.29-14.29-11.33ZM213,194.51c.25,4.6,5.31,8.58,11.54,9V183.05c-7.66,1.5-11.85,5.79-11.54,11.46m102.2-21.38C302.8,154,288,137,269.68,123.31c-5.49-4.09-11.4-7.63-17.14-11.14a98.08,98.08,0,0,1-49.14,1.15c-24.26,14.6-42,35.67-56.89,59.42-10.44,16.68-18.21,34.58-21.59,54.06a102,102,0,0,0-1.4,12.06c8.27-3,17-4.73,24.21-4.75h51.9A6.3,6.3,0,0,1,204,226.5c3.58-1.13,6.68.48,8.09,4.58a19.39,19.39,0,0,0,1.33,3h11.05V218c-4.87-2.16-9.85-3.89-14.39-6.42-13.29-7.38-12.9-26-1.59-35a33.7,33.7,0,0,1,16.26-6.83c0-2.26-.07-4.38,0-6.51.19-4.46,2.64-7.06,6.52-7s6.15,2.8,6.2,7.25c0,1.94,0,3.89,0,5.79a108.53,108.53,0,0,1,10.64,3.3c7.7,3.24,13.18,8.7,15.21,17,1.19,4.91-2.44,8.81-7.23,8-2.69-.48-4.16-2.36-5.13-4.79-2.44-6.17-6.57-9.17-13.47-9.74,0,7.52-.06,15,.08,22.5,0,.72,1.12,1.8,1.93,2.08,3.08,1.11,6.35,1.75,9.39,3,10.8,4.23,16.34,12.2,15.82,22.46a23.25,23.25,0,0,1-6.59,15.31,26.53,26.53,0,0,1,2.94,12,30.76,30.76,0,0,1-.36,4.36c-1.92,11.58-12,20.53-24.11,21.68h19.2c4.76,0,12.49-2.72,16.21-5.71l50.28-40.22a28,28,0,0,1,17.44-6.17l.22,0c-3.09-22.37-12.49-42.35-24.72-61.18M272.73,63.29c.81-3.61,1.58-7.49-1.43-10.72h-8c-12.29,3-24.52,6.33-36.89,9a22.06,22.06,0,0,1-10.88-.6c-7.25-2.37-14.25-5.57-21.33-8.41H184.3c-6.57,4.4-6.37,10.72-4.55,17.24a71.61,71.61,0,0,0,23.92,36.85,91.65,91.65,0,0,0,22.11,2.71,90.29,90.29,0,0,0,23.13-3c3.23-3.87,6.8-8,9.89-12.41a86.63,86.63,0,0,0,13.93-30.69"/></svg>