<svg id="Layer_1" data-name="Layer 1" xmlns="http://www.w3.org/2000/svg" viewBox="0 0 400 400"><defs><style>.cls-1{fill:#8ab7e9;}</style></defs><path class="cls-1" d="M235.51,272.65a10.59,10.59,0,0,1-.2,1.87L226.89,311a8.83,8.83,0,0,1-8.21,6.53h0A162.79,162.79,0,0,1,55.87,154.73a8.81,8.81,0,0,1,6.52-8.2l36.5-8.42a9.84,9.84,0,0,1,1.87-.22,9.18,9.18,0,0,1,7.77,5.09l16.84,39.3a9.92,9.92,0,0,1,.68,3.31,9.47,9.47,0,0,1-3.1,6.51l-21.26,17.41c11,23.32,38.85,51.17,62.17,62.17l17.41-21.26a9.52,9.52,0,0,1,6.52-3.1,9.82,9.82,0,0,1,3.3.68l39.3,16.84A9.23,9.23,0,0,1,235.51,272.65Z"/><path class="cls-1" d="M240.48,150c-41.76-30.3-44.94-33-54.57-40.5a7.59,7.59,0,0,1-2.89-5.95v-6a15.1,15.1,0,0,1,15.1-15.1H329a15.1,15.1,0,0,1,15.1,15.1v6a7.53,7.53,0,0,1-2.89,5.95c-9.63,7.55-12.81,10.2-54.57,40.5-5.29,3.84-15.79,13.15-23.1,13C256.27,163.14,245.76,153.83,240.48,150Zm103.65-26.15v64.35A15.11,15.11,0,0,1,329,203.3H198.12A15.11,15.11,0,0,1,183,188.19V123.87a1.88,1.88,0,0,1,3-1.48c7.05,5.48,16.39,12.43,48.49,35.75,6.64,4.85,17.84,15,29,15,11.24.09,22.66-10.32,29.05-15,32.1-23.32,41.41-30.3,48.46-35.78A1.89,1.89,0,0,1,344.13,123.84Z"/></svg>