<svg id="Layer_1" data-name="Layer 1" xmlns="http://www.w3.org/2000/svg" viewBox="0 0 400 400"><defs><style>.cls-1{fill:#0033a1;}</style></defs><path class="cls-1" d="M320.41,157.8,288.7,131.66V79.12a4.55,4.55,0,0,0-4.55-4.55H262.9a4.55,4.55,0,0,0-4.55,4.55v27.54l-34-27.94a18.2,18.2,0,0,0-23.14,0l-96,79.08a5.14,5.14,0,0,0-1.66,3.51,5.28,5.28,0,0,0,1.05,2.9L114.29,176a5.16,5.16,0,0,0,3.52,1.66,5.35,5.35,0,0,0,2.9-1l89.23-73.49a4.6,4.6,0,0,1,5.8,0L305,176.59a5.27,5.27,0,0,0,2.9,1,5.15,5.15,0,0,0,3.51-1.65l9.68-11.76a5.28,5.28,0,0,0,1-2.89A5.14,5.14,0,0,0,320.41,157.8Z"/><path class="cls-1" d="M142.15,239.22l.58-.17c.65-.2,1.32-.4,2-.59l.57-.14.16,0c.55-.15,1.08-.28,1.59-.4l.2,0,.17,0,.78-.17,1.65-.33.67-.12.24,0c.55-.1,1.11-.18,1.72-.26h.08l.13,0,.73-.09c.6-.08,1.14-.12,1.63-.16h.24l.6,0c.92-.06,1.68-.09,2.39-.09h48.1V231.6a28.47,28.47,0,0,1-17.43-6,3.26,3.26,0,0,1-.37-4.93l7-6.85a3.13,3.13,0,0,1,3.92-.41,12.34,12.34,0,0,0,6.9,2.12h13.35a5.95,5.95,0,0,0,1.68-11.65l-20.66-6c-8.94-2.62-16-10.18-16.88-19.46a22.08,22.08,0,0,1,22-24.1h.51v-9.67a3.23,3.23,0,0,1,3.22-3.22h6.45a3.23,3.23,0,0,1,3.22,3.22v9.67a28.54,28.54,0,0,1,17.43,6,3.27,3.27,0,0,1,.36,4.94l-7,6.85a3.13,3.13,0,0,1-3.93.4,12.3,12.3,0,0,0-6.89-2.11H205.88A5.94,5.94,0,0,0,204.21,182L226,188.36a22.13,22.13,0,0,1,14.61,28.55c-3.11,8.88-11.91,14.46-21.3,14.65v4.88h8.52a19.08,19.08,0,0,1,2.84.22l.23,0,.52.1c.35.06.66.14.93.2s.39.08.62.15l.3.09a19.64,19.64,0,0,1,13.6,14.5l.06.26q.15.81.24,1.5a4.88,4.88,0,0,1,.06.52q.08.78.09,1.56c0,.11,0,.23,0,.34V256c0,.32,0,.68,0,1.11h31.33l7.06-5.65c0-.14,0-.28,0-.42V176.21l-69.92-57.56a4.6,4.6,0,0,0-5.8,0L140,176.25v63.69C140.71,239.69,141.43,239.45,142.15,239.22Z"/><path class="cls-1" d="M325.12,255.94a15.77,15.77,0,0,1-5.22,10.86l-65.7,52.55a32.3,32.3,0,0,1-17.35,6.08h-155a7,7,0,0,1-7-6.94V276.78a7,7,0,0,1,7-6.95h24.06l20.19-16.38c4.45-3.6,11.05-6.8,17.77-8.9l.37-.11c.67-.2,1.33-.41,2-.58.22-.07.44-.11.66-.17.56-.15,1.13-.29,1.69-.42l.79-.17c.52-.11,1-.22,1.55-.31l.82-.15c.51-.09,1-.16,1.48-.22.28,0,.55-.09.81-.11.52-.07,1-.11,1.5-.15l.68,0c.72-.05,1.41-.08,2.08-.08H227.8a14.44,14.44,0,0,1,2.29.2h0l.15,0a9.79,9.79,0,0,1,1,.21l.18,0h0a13.9,13.9,0,0,1,10,10.54v0a12.53,12.53,0,0,1,.19,1.25.49.49,0,0,1,0,.15c0,.45.07.91.07,1.36,0,0,0,0,0,.07V256c0,.32,0,.73-.06,1.16,0,.21-.05.41-.06.62s-.05.38-.08.54a13.39,13.39,0,0,1-6.06,9.05,17.4,17.4,0,0,1-2.21,1.2,15.79,15.79,0,0,1-3.62,1.09c-.42.06-.85.12-1.28.16s-.85.05-1.28.05h-34a7,7,0,0,0-2.71,13.36,7.2,7.2,0,0,0,2.71.55H244.5c.35,0,.69,0,1,0A30.26,30.26,0,0,0,253.6,282c1-.35,2-.75,2.91-1.18a24.77,24.77,0,0,0,5.29-3.11L302,245.55l0,0a12,12,0,0,1,1-.74l.34-.22c.25-.16.5-.32.75-.46l.44-.22a6,6,0,0,1,.72-.35,2.82,2.82,0,0,1,.48-.19,6.07,6.07,0,0,1,.7-.29l.53-.17c.23-.07.45-.15.69-.21s.37-.07.55-.12l.68-.15c.2,0,.39,0,.58-.08l.67-.08.59,0c.22,0,.43,0,.66,0h.08a5.52,5.52,0,0,1,.58,0,13.16,13.16,0,0,1,8.41,3.35,15.82,15.82,0,0,1,4.67,10.39"/></svg>