<svg id="Layer_1" data-name="Layer 1" xmlns="http://www.w3.org/2000/svg" viewBox="0 0 400 400"><defs><style>.cls-1{fill:#fff;}</style></defs><path class="cls-1" d="M240.31,232.31c-4.51,12.91-17.3,21-30.94,21.29v14.11a4.7,4.7,0,0,1-4.69,4.68h-9.37a4.7,4.7,0,0,1-4.68-4.68V253.65a41.39,41.39,0,0,1-25.32-8.78,4.74,4.74,0,0,1-.53-7.17l10.19-10a4.57,4.57,0,0,1,5.71-.58,17.85,17.85,0,0,0,10,3.07H210.1a8.64,8.64,0,0,0,2.43-16.92l-30-8.78c-13-3.81-23.3-14.78-24.53-28.28a32.07,32.07,0,0,1,31.91-35h.73V127.18a4.7,4.7,0,0,1,4.68-4.68h9.37a4.7,4.7,0,0,1,4.69,4.68v14.06A41.39,41.39,0,0,1,234.69,150a4.74,4.74,0,0,1,.53,7.17l-10.19,10a4.57,4.57,0,0,1-5.71.58,17.87,17.87,0,0,0-10-3.07H189.9a8.63,8.63,0,0,0-2.43,16.92l31.62,9.25A32.15,32.15,0,0,1,240.31,232.31Z"/><path class="cls-1" d="M66.44,259.15l-37.38-64H55.57c1-41.94,16.05-77.59,46.73-106.21,19.31-18,42.15-29.49,68-35,50.11-10.69,100.69,7.48,131.57,38.9l-15.21,14.75c-23.18-22.11-51.29-34.08-83.82-35.22a115.8,115.8,0,0,0-67.12,18C97.46,114.56,78.74,149.87,76.88,195h27C91.32,216.52,79,237.63,66.44,259.15Z"/><path class="cls-1" d="M322.73,195H296.19c12.55-21.5,24.88-42.62,37.38-64.05,12.51,21.42,24.84,42.56,37.37,64H344.42c-1,41.87-16.09,77.44-46.73,106a139.64,139.64,0,0,1-66.93,34.68C178.58,346.89,128.32,327.84,98,296.73c2.5-2.5,5-5,7.52-7.51s4.85-5,7.35-7.54q33.58,32.42,79.54,35.53A118.88,118.88,0,0,0,261,301.5,121.49,121.49,0,0,0,322.73,195Z"/></svg>